<mxfile host="app.diagrams.net" modified="2023-08-23T06:34:42.736Z" agent="Mozilla/5.0 (X11; Ubuntu; Linux x86_64; rv:105.0) Gecko/20100101 Firefox/105.0" etag="DzF8DkJtctWUFM0szVWz" version="21.6.8" type="device">
  <diagram name="Page-1" id="aGrNsAUD6rLRG3-fpc4p">
    <mxGraphModel dx="1367" dy="795" grid="1" gridSize="10" guides="1" tooltips="1" connect="1" arrows="1" fold="1" page="1" pageScale="1" pageWidth="850" pageHeight="1100" math="0" shadow="0">
      <root>
        <mxCell id="0" />
        <mxCell id="1" parent="0" />
        <mxCell id="lMKs0ngcyYjgUOuQ9oQE-96" value="" style="rounded=0;whiteSpace=wrap;html=1;strokeWidth=3;fillColor=none;" parent="1" vertex="1">
          <mxGeometry x="12" y="30" width="828" height="800" as="geometry" />
        </mxCell>
        <mxCell id="Dw3qF6tHwgRVVZFkppPR-330" value="" style="rounded=0;whiteSpace=wrap;html=1;strokeWidth=3;fillColor=#e1d5e7;strokeColor=default;" parent="1" vertex="1">
          <mxGeometry x="214" y="137" width="180" height="60" as="geometry" />
        </mxCell>
        <mxCell id="Dw3qF6tHwgRVVZFkppPR-331" value="&lt;div&gt;&lt;font style=&quot;font-size: 18px;&quot;&gt;Allocated mem chunk&lt;/font&gt;&lt;/div&gt;" style="text;html=1;strokeColor=none;fillColor=none;align=center;verticalAlign=middle;whiteSpace=wrap;rounded=0;" parent="1" vertex="1">
          <mxGeometry x="199" y="139" width="210" height="30" as="geometry" />
        </mxCell>
        <mxCell id="Dw3qF6tHwgRVVZFkppPR-332" value="&lt;font style=&quot;font-size: 18px;&quot;&gt;Size=3MB&lt;br&gt;&lt;/font&gt;" style="text;html=1;strokeColor=none;fillColor=none;align=center;verticalAlign=middle;whiteSpace=wrap;rounded=0;" parent="1" vertex="1">
          <mxGeometry x="230" y="167" width="134" height="30" as="geometry" />
        </mxCell>
        <mxCell id="Dw3qF6tHwgRVVZFkppPR-344" value="" style="rounded=0;whiteSpace=wrap;html=1;strokeWidth=3;fillColor=#ffe6cc;strokeColor=default;" parent="1" vertex="1">
          <mxGeometry x="394" y="137" width="180" height="60" as="geometry" />
        </mxCell>
        <mxCell id="Dw3qF6tHwgRVVZFkppPR-345" value="&lt;font style=&quot;font-size: 18px;&quot;&gt;Size=1MB&lt;br&gt;&lt;/font&gt;" style="text;html=1;strokeColor=none;fillColor=none;align=center;verticalAlign=middle;whiteSpace=wrap;rounded=0;" parent="1" vertex="1">
          <mxGeometry x="416" y="167" width="124" height="30" as="geometry" />
        </mxCell>
        <mxCell id="Dw3qF6tHwgRVVZFkppPR-346" value="&lt;font style=&quot;font-size: 18px;&quot;&gt;Free mem chunk&lt;/font&gt;" style="text;html=1;strokeColor=none;fillColor=none;align=center;verticalAlign=middle;whiteSpace=wrap;rounded=0;" parent="1" vertex="1">
          <mxGeometry x="377.5" y="141" width="209.5" height="26" as="geometry" />
        </mxCell>
        <mxCell id="Dw3qF6tHwgRVVZFkppPR-353" value="&lt;font style=&quot;font-size: 24px;&quot;&gt;memalloc(2 MB)&lt;/font&gt;" style="text;html=1;strokeColor=none;fillColor=none;align=center;verticalAlign=middle;whiteSpace=wrap;rounded=0;" parent="1" vertex="1">
          <mxGeometry x="390" y="40" width="197" height="30" as="geometry" />
        </mxCell>
        <mxCell id="Dw3qF6tHwgRVVZFkppPR-354" value="" style="endArrow=classic;html=1;rounded=0;strokeWidth=3;" parent="1" edge="1">
          <mxGeometry width="50" height="50" relative="1" as="geometry">
            <mxPoint x="480" y="80" as="sourcePoint" />
            <mxPoint x="480" y="136" as="targetPoint" />
          </mxGeometry>
        </mxCell>
        <mxCell id="lMKs0ngcyYjgUOuQ9oQE-2" value="&lt;div align=&quot;left&quot;&gt;&lt;font style=&quot;font-size: 18px;&quot;&gt;Not enough memory.&lt;/font&gt;&lt;/div&gt;&lt;div align=&quot;left&quot;&gt;&lt;font style=&quot;font-size: 18px;&quot;&gt;Request more mem from OS&lt;br&gt;&lt;/font&gt;&lt;/div&gt;" style="text;html=1;strokeColor=none;fillColor=none;align=left;verticalAlign=middle;whiteSpace=wrap;rounded=0;" parent="1" vertex="1">
          <mxGeometry x="490" y="88" width="240" height="30" as="geometry" />
        </mxCell>
        <mxCell id="lMKs0ngcyYjgUOuQ9oQE-3" value="" style="endArrow=classic;startArrow=classic;html=1;rounded=0;strokeWidth=3;" parent="1" edge="1">
          <mxGeometry width="50" height="50" relative="1" as="geometry">
            <mxPoint x="221" y="210" as="sourcePoint" />
            <mxPoint x="570" y="210" as="targetPoint" />
          </mxGeometry>
        </mxCell>
        <mxCell id="lMKs0ngcyYjgUOuQ9oQE-4" value="&lt;font style=&quot;font-size: 24px;&quot;&gt;4 MB&lt;/font&gt;" style="text;html=1;strokeColor=none;fillColor=none;align=center;verticalAlign=middle;whiteSpace=wrap;rounded=0;" parent="1" vertex="1">
          <mxGeometry x="300" y="220" width="177" height="30" as="geometry" />
        </mxCell>
        <mxCell id="lMKs0ngcyYjgUOuQ9oQE-7" value="" style="rounded=0;whiteSpace=wrap;html=1;strokeWidth=3;fillColor=#e1d5e7;strokeColor=default;" parent="1" vertex="1">
          <mxGeometry x="40" y="437" width="180" height="60" as="geometry" />
        </mxCell>
        <mxCell id="lMKs0ngcyYjgUOuQ9oQE-8" value="&lt;div&gt;&lt;font style=&quot;font-size: 18px;&quot;&gt;Allocated mem chunk&lt;/font&gt;&lt;/div&gt;" style="text;html=1;strokeColor=none;fillColor=none;align=center;verticalAlign=middle;whiteSpace=wrap;rounded=0;" parent="1" vertex="1">
          <mxGeometry x="25" y="439" width="210" height="30" as="geometry" />
        </mxCell>
        <mxCell id="lMKs0ngcyYjgUOuQ9oQE-9" value="&lt;font style=&quot;font-size: 18px;&quot;&gt;Size=3MB&lt;br&gt;&lt;/font&gt;" style="text;html=1;strokeColor=none;fillColor=none;align=center;verticalAlign=middle;whiteSpace=wrap;rounded=0;" parent="1" vertex="1">
          <mxGeometry x="56" y="467" width="134" height="30" as="geometry" />
        </mxCell>
        <mxCell id="lMKs0ngcyYjgUOuQ9oQE-10" value="" style="rounded=0;whiteSpace=wrap;html=1;strokeWidth=3;fillColor=#ffe6cc;strokeColor=default;" parent="1" vertex="1">
          <mxGeometry x="220" y="437" width="180" height="60" as="geometry" />
        </mxCell>
        <mxCell id="lMKs0ngcyYjgUOuQ9oQE-11" value="&lt;font style=&quot;font-size: 18px;&quot;&gt;Size=1MB&lt;br&gt;&lt;/font&gt;" style="text;html=1;strokeColor=none;fillColor=none;align=center;verticalAlign=middle;whiteSpace=wrap;rounded=0;" parent="1" vertex="1">
          <mxGeometry x="242" y="467" width="124" height="30" as="geometry" />
        </mxCell>
        <mxCell id="lMKs0ngcyYjgUOuQ9oQE-12" value="&lt;font style=&quot;font-size: 18px;&quot;&gt;Free mem chunk&lt;/font&gt;" style="text;html=1;strokeColor=none;fillColor=none;align=center;verticalAlign=middle;whiteSpace=wrap;rounded=0;" parent="1" vertex="1">
          <mxGeometry x="203.5" y="441" width="209.5" height="26" as="geometry" />
        </mxCell>
        <mxCell id="lMKs0ngcyYjgUOuQ9oQE-19" value="" style="endArrow=classic;startArrow=classic;html=1;rounded=0;strokeWidth=3;" parent="1" edge="1">
          <mxGeometry width="50" height="50" relative="1" as="geometry">
            <mxPoint x="40" y="510" as="sourcePoint" />
            <mxPoint x="400" y="510" as="targetPoint" />
          </mxGeometry>
        </mxCell>
        <mxCell id="lMKs0ngcyYjgUOuQ9oQE-21" value="" style="rounded=0;whiteSpace=wrap;html=1;strokeWidth=3;fillColor=#ffe6cc;strokeColor=default;" parent="1" vertex="1">
          <mxGeometry x="456" y="437" width="360" height="60" as="geometry" />
        </mxCell>
        <mxCell id="lMKs0ngcyYjgUOuQ9oQE-22" value="&lt;font style=&quot;font-size: 18px;&quot;&gt;Size=4MB&lt;br&gt;&lt;/font&gt;" style="text;html=1;strokeColor=none;fillColor=none;align=center;verticalAlign=middle;whiteSpace=wrap;rounded=0;" parent="1" vertex="1">
          <mxGeometry x="576" y="467" width="124" height="30" as="geometry" />
        </mxCell>
        <mxCell id="lMKs0ngcyYjgUOuQ9oQE-24" value="&lt;font style=&quot;font-size: 18px;&quot;&gt;Free mem chunk&lt;/font&gt;" style="text;html=1;strokeColor=none;fillColor=none;align=center;verticalAlign=middle;whiteSpace=wrap;rounded=0;" parent="1" vertex="1">
          <mxGeometry x="526" y="441" width="209.5" height="26" as="geometry" />
        </mxCell>
        <mxCell id="lMKs0ngcyYjgUOuQ9oQE-25" value="&lt;font style=&quot;font-size: 24px;&quot;&gt;addr &#39;a&#39;&lt;br&gt;&lt;/font&gt;" style="text;html=1;strokeColor=none;fillColor=none;align=center;verticalAlign=middle;whiteSpace=wrap;rounded=0;" parent="1" vertex="1">
          <mxGeometry x="12" y="365" width="95" height="30" as="geometry" />
        </mxCell>
        <mxCell id="lMKs0ngcyYjgUOuQ9oQE-26" value="&lt;font style=&quot;font-size: 24px;&quot;&gt;&#39;a&#39; + 4MB -1&lt;br&gt;&lt;/font&gt;" style="text;html=1;strokeColor=none;fillColor=none;align=center;verticalAlign=middle;whiteSpace=wrap;rounded=0;" parent="1" vertex="1">
          <mxGeometry x="282" y="365" width="142" height="30" as="geometry" />
        </mxCell>
        <mxCell id="lMKs0ngcyYjgUOuQ9oQE-27" value="" style="endArrow=classic;html=1;rounded=0;strokeWidth=3;" parent="1" edge="1">
          <mxGeometry width="50" height="50" relative="1" as="geometry">
            <mxPoint x="398" y="400" as="sourcePoint" />
            <mxPoint x="398" y="435" as="targetPoint" />
          </mxGeometry>
        </mxCell>
        <mxCell id="lMKs0ngcyYjgUOuQ9oQE-29" value="" style="endArrow=classic;html=1;rounded=0;strokeWidth=3;exitX=0.606;exitY=1.167;exitDx=0;exitDy=0;exitPerimeter=0;" parent="1" edge="1">
          <mxGeometry width="50" height="50" relative="1" as="geometry">
            <mxPoint x="40" y="400" as="sourcePoint" />
            <mxPoint x="40" y="435" as="targetPoint" />
          </mxGeometry>
        </mxCell>
        <mxCell id="lMKs0ngcyYjgUOuQ9oQE-30" value="&lt;font style=&quot;font-size: 24px;&quot;&gt;4 MB&lt;/font&gt;" style="text;html=1;strokeColor=none;fillColor=none;align=center;verticalAlign=middle;whiteSpace=wrap;rounded=0;" parent="1" vertex="1">
          <mxGeometry x="126" y="510" width="177" height="30" as="geometry" />
        </mxCell>
        <mxCell id="lMKs0ngcyYjgUOuQ9oQE-31" value="" style="endArrow=classic;startArrow=classic;html=1;rounded=0;strokeWidth=3;" parent="1" edge="1">
          <mxGeometry width="50" height="50" relative="1" as="geometry">
            <mxPoint x="458" y="508" as="sourcePoint" />
            <mxPoint x="818" y="508" as="targetPoint" />
          </mxGeometry>
        </mxCell>
        <mxCell id="lMKs0ngcyYjgUOuQ9oQE-32" value="&lt;font style=&quot;font-size: 24px;&quot;&gt;4 MB&lt;/font&gt;" style="text;html=1;strokeColor=none;fillColor=none;align=center;verticalAlign=middle;whiteSpace=wrap;rounded=0;" parent="1" vertex="1">
          <mxGeometry x="543.5" y="508" width="177" height="30" as="geometry" />
        </mxCell>
        <mxCell id="lMKs0ngcyYjgUOuQ9oQE-33" value="" style="endArrow=classic;html=1;rounded=0;strokeWidth=3;exitX=0.606;exitY=1.167;exitDx=0;exitDy=0;exitPerimeter=0;" parent="1" edge="1">
          <mxGeometry width="50" height="50" relative="1" as="geometry">
            <mxPoint x="456" y="400" as="sourcePoint" />
            <mxPoint x="456" y="435" as="targetPoint" />
          </mxGeometry>
        </mxCell>
        <mxCell id="lMKs0ngcyYjgUOuQ9oQE-34" value="&lt;font style=&quot;font-size: 24px;&quot;&gt;&#39;a&#39; + 4MB&lt;br&gt;&lt;/font&gt;" style="text;html=1;strokeColor=none;fillColor=none;align=center;verticalAlign=middle;whiteSpace=wrap;rounded=0;" parent="1" vertex="1">
          <mxGeometry x="431" y="365" width="142" height="30" as="geometry" />
        </mxCell>
        <mxCell id="lMKs0ngcyYjgUOuQ9oQE-36" value="&lt;font style=&quot;font-size: 24px;&quot;&gt;&#39;a&#39; + 8MB -1&lt;br&gt;&lt;/font&gt;" style="text;html=1;strokeColor=none;fillColor=none;align=center;verticalAlign=middle;whiteSpace=wrap;rounded=0;" parent="1" vertex="1">
          <mxGeometry x="688" y="365" width="142" height="30" as="geometry" />
        </mxCell>
        <mxCell id="lMKs0ngcyYjgUOuQ9oQE-37" value="" style="endArrow=classic;html=1;rounded=0;strokeWidth=3;" parent="1" edge="1">
          <mxGeometry width="50" height="50" relative="1" as="geometry">
            <mxPoint x="816" y="400" as="sourcePoint" />
            <mxPoint x="816" y="435" as="targetPoint" />
          </mxGeometry>
        </mxCell>
        <mxCell id="lMKs0ngcyYjgUOuQ9oQE-38" value="" style="rounded=0;whiteSpace=wrap;html=1;strokeWidth=3;fillColor=#e1d5e7;strokeColor=default;" parent="1" vertex="1">
          <mxGeometry x="53.5" y="717" width="180" height="60" as="geometry" />
        </mxCell>
        <mxCell id="lMKs0ngcyYjgUOuQ9oQE-39" value="&lt;div&gt;&lt;font style=&quot;font-size: 18px;&quot;&gt;Allocated mem chunk&lt;/font&gt;&lt;/div&gt;" style="text;html=1;strokeColor=none;fillColor=none;align=center;verticalAlign=middle;whiteSpace=wrap;rounded=0;" parent="1" vertex="1">
          <mxGeometry x="38.5" y="719" width="210" height="30" as="geometry" />
        </mxCell>
        <mxCell id="lMKs0ngcyYjgUOuQ9oQE-40" value="&lt;font style=&quot;font-size: 18px;&quot;&gt;Size=3MB&lt;br&gt;&lt;/font&gt;" style="text;html=1;strokeColor=none;fillColor=none;align=center;verticalAlign=middle;whiteSpace=wrap;rounded=0;" parent="1" vertex="1">
          <mxGeometry x="69.5" y="747" width="134" height="30" as="geometry" />
        </mxCell>
        <mxCell id="lMKs0ngcyYjgUOuQ9oQE-41" value="" style="rounded=0;whiteSpace=wrap;html=1;strokeWidth=3;fillColor=#ffe6cc;strokeColor=default;" parent="1" vertex="1">
          <mxGeometry x="233.5" y="717" width="180" height="60" as="geometry" />
        </mxCell>
        <mxCell id="lMKs0ngcyYjgUOuQ9oQE-45" value="" style="rounded=0;whiteSpace=wrap;html=1;strokeWidth=3;fillColor=#ffe6cc;strokeColor=default;" parent="1" vertex="1">
          <mxGeometry x="233" y="717" width="544" height="60" as="geometry" />
        </mxCell>
        <mxCell id="lMKs0ngcyYjgUOuQ9oQE-46" value="&lt;font style=&quot;font-size: 18px;&quot;&gt;Size=2MB - 8bytes&lt;br&gt;&lt;/font&gt;" style="text;html=1;strokeColor=none;fillColor=none;align=center;verticalAlign=middle;whiteSpace=wrap;rounded=0;" parent="1" vertex="1">
          <mxGeometry x="605.75" y="747" width="160" height="30" as="geometry" />
        </mxCell>
        <mxCell id="lMKs0ngcyYjgUOuQ9oQE-47" value="&lt;font style=&quot;font-size: 18px;&quot;&gt;Free mem chunk&lt;/font&gt;" style="text;html=1;strokeColor=none;fillColor=none;align=center;verticalAlign=middle;whiteSpace=wrap;rounded=0;" parent="1" vertex="1">
          <mxGeometry x="581" y="721" width="209.5" height="26" as="geometry" />
        </mxCell>
        <mxCell id="lMKs0ngcyYjgUOuQ9oQE-48" value="&lt;font style=&quot;font-size: 24px;&quot;&gt;addr &#39;a&#39;&lt;br&gt;&lt;/font&gt;" style="text;html=1;strokeColor=none;fillColor=none;align=center;verticalAlign=middle;whiteSpace=wrap;rounded=0;" parent="1" vertex="1">
          <mxGeometry x="12" y="650" width="127.5" height="30" as="geometry" />
        </mxCell>
        <mxCell id="lMKs0ngcyYjgUOuQ9oQE-51" value="" style="endArrow=classic;html=1;rounded=0;strokeWidth=3;exitX=0.606;exitY=1.167;exitDx=0;exitDy=0;exitPerimeter=0;" parent="1" edge="1">
          <mxGeometry width="50" height="50" relative="1" as="geometry">
            <mxPoint x="53.5" y="680" as="sourcePoint" />
            <mxPoint x="53.5" y="715" as="targetPoint" />
          </mxGeometry>
        </mxCell>
        <mxCell id="lMKs0ngcyYjgUOuQ9oQE-57" value="&lt;font style=&quot;font-size: 24px;&quot;&gt;&#39;a&#39; + 8MB -1&lt;br&gt;&lt;/font&gt;" style="text;html=1;strokeColor=none;fillColor=none;align=center;verticalAlign=middle;whiteSpace=wrap;rounded=0;" parent="1" vertex="1">
          <mxGeometry x="681.5" y="650" width="142" height="30" as="geometry" />
        </mxCell>
        <mxCell id="lMKs0ngcyYjgUOuQ9oQE-58" value="" style="endArrow=classic;html=1;rounded=0;strokeWidth=3;" parent="1" edge="1">
          <mxGeometry width="50" height="50" relative="1" as="geometry">
            <mxPoint x="775.5" y="680" as="sourcePoint" />
            <mxPoint x="775.5" y="715" as="targetPoint" />
          </mxGeometry>
        </mxCell>
        <mxCell id="lMKs0ngcyYjgUOuQ9oQE-78" value="" style="rounded=0;whiteSpace=wrap;html=1;strokeWidth=3;fillColor=#ffe6cc;strokeColor=default;" parent="1" vertex="1">
          <mxGeometry x="234" y="717" width="180" height="60" as="geometry" />
        </mxCell>
        <mxCell id="lMKs0ngcyYjgUOuQ9oQE-79" value="&lt;font style=&quot;font-size: 18px;&quot;&gt;Size=1MB&lt;br&gt;&lt;/font&gt;" style="text;html=1;strokeColor=none;fillColor=none;align=center;verticalAlign=middle;whiteSpace=wrap;rounded=0;" parent="1" vertex="1">
          <mxGeometry x="257.75" y="747" width="124" height="30" as="geometry" />
        </mxCell>
        <mxCell id="lMKs0ngcyYjgUOuQ9oQE-80" value="&lt;font style=&quot;font-size: 18px;&quot;&gt;Free mem chunk&lt;/font&gt;" style="text;html=1;strokeColor=none;fillColor=none;align=center;verticalAlign=middle;whiteSpace=wrap;rounded=0;" parent="1" vertex="1">
          <mxGeometry x="219.25" y="721" width="209.5" height="26" as="geometry" />
        </mxCell>
        <mxCell id="lMKs0ngcyYjgUOuQ9oQE-81" value="" style="endArrow=classic;html=1;rounded=0;strokeWidth=3;exitX=0.606;exitY=1.167;exitDx=0;exitDy=0;exitPerimeter=0;" parent="1" edge="1">
          <mxGeometry width="50" height="50" relative="1" as="geometry">
            <mxPoint x="413" y="682" as="sourcePoint" />
            <mxPoint x="413" y="717" as="targetPoint" />
          </mxGeometry>
        </mxCell>
        <mxCell id="lMKs0ngcyYjgUOuQ9oQE-82" value="&lt;font style=&quot;font-size: 24px;&quot;&gt;&#39;a&#39; + 4MB&lt;br&gt;&lt;/font&gt;" style="text;html=1;strokeColor=none;fillColor=none;align=center;verticalAlign=middle;whiteSpace=wrap;rounded=0;" parent="1" vertex="1">
          <mxGeometry x="388" y="647" width="142" height="30" as="geometry" />
        </mxCell>
        <mxCell id="lMKs0ngcyYjgUOuQ9oQE-83" value="" style="rounded=0;whiteSpace=wrap;html=1;strokeWidth=3;fillColor=#e1d5e7;strokeColor=default;" parent="1" vertex="1">
          <mxGeometry x="413.5" y="717" width="176.5" height="60" as="geometry" />
        </mxCell>
        <mxCell id="lMKs0ngcyYjgUOuQ9oQE-84" value="&lt;div&gt;&lt;font style=&quot;font-size: 18px;&quot;&gt;Allocated mem chunk&lt;/font&gt;&lt;/div&gt;" style="text;html=1;strokeColor=none;fillColor=none;align=center;verticalAlign=middle;whiteSpace=wrap;rounded=0;" parent="1" vertex="1">
          <mxGeometry x="397" y="717" width="210" height="30" as="geometry" />
        </mxCell>
        <mxCell id="lMKs0ngcyYjgUOuQ9oQE-77" value="&lt;font style=&quot;font-size: 18px;&quot;&gt;Size=2MB+8 bytes&lt;br&gt;&lt;/font&gt;" style="text;html=1;strokeColor=none;fillColor=none;align=center;verticalAlign=middle;whiteSpace=wrap;rounded=0;" parent="1" vertex="1">
          <mxGeometry x="424" y="747" width="155.25" height="30" as="geometry" />
        </mxCell>
        <mxCell id="lMKs0ngcyYjgUOuQ9oQE-86" value="&lt;font style=&quot;font-size: 24px;&quot;&gt;(a)&lt;/font&gt;" style="text;html=1;strokeColor=none;fillColor=none;align=center;verticalAlign=middle;whiteSpace=wrap;rounded=0;" parent="1" vertex="1">
          <mxGeometry x="310" y="270" width="177" height="30" as="geometry" />
        </mxCell>
        <mxCell id="lMKs0ngcyYjgUOuQ9oQE-87" value="&lt;font style=&quot;font-size: 24px;&quot;&gt;(b)&lt;/font&gt;" style="text;html=1;strokeColor=none;fillColor=none;align=center;verticalAlign=middle;whiteSpace=wrap;rounded=0;" parent="1" vertex="1">
          <mxGeometry x="310" y="550" width="177" height="30" as="geometry" />
        </mxCell>
        <mxCell id="lMKs0ngcyYjgUOuQ9oQE-88" value="&lt;font style=&quot;font-size: 24px;&quot;&gt;addr &#39;a&#39;&lt;br&gt;&lt;/font&gt;" style="text;html=1;strokeColor=none;fillColor=none;align=center;verticalAlign=middle;whiteSpace=wrap;rounded=0;" parent="1" vertex="1">
          <mxGeometry x="150" y="244" width="127.5" height="30" as="geometry" />
        </mxCell>
        <mxCell id="lMKs0ngcyYjgUOuQ9oQE-89" value="&lt;font style=&quot;font-size: 24px;&quot;&gt;&#39;a&#39; + 4MB -1&lt;br&gt;&lt;/font&gt;" style="text;html=1;strokeColor=none;fillColor=none;align=center;verticalAlign=middle;whiteSpace=wrap;rounded=0;" parent="1" vertex="1">
          <mxGeometry x="500" y="240" width="142" height="30" as="geometry" />
        </mxCell>
        <mxCell id="lMKs0ngcyYjgUOuQ9oQE-93" value="" style="endArrow=classic;html=1;rounded=0;entryX=0.401;entryY=1.1;entryDx=0;entryDy=0;entryPerimeter=0;strokeWidth=3;" parent="1" edge="1">
          <mxGeometry width="50" height="50" relative="1" as="geometry">
            <mxPoint x="215" y="247" as="sourcePoint" />
            <mxPoint x="215.9770000000001" y="200" as="targetPoint" />
          </mxGeometry>
        </mxCell>
        <mxCell id="lMKs0ngcyYjgUOuQ9oQE-94" value="" style="endArrow=classic;html=1;rounded=0;entryX=0.401;entryY=1.1;entryDx=0;entryDy=0;entryPerimeter=0;strokeWidth=3;" parent="1" edge="1">
          <mxGeometry width="50" height="50" relative="1" as="geometry">
            <mxPoint x="575" y="247" as="sourcePoint" />
            <mxPoint x="575.9770000000001" y="200" as="targetPoint" />
          </mxGeometry>
        </mxCell>
        <mxCell id="lMKs0ngcyYjgUOuQ9oQE-95" value="&lt;font style=&quot;font-size: 24px;&quot;&gt;(c)&lt;/font&gt;" style="text;html=1;strokeColor=none;fillColor=none;align=center;verticalAlign=middle;whiteSpace=wrap;rounded=0;" parent="1" vertex="1">
          <mxGeometry x="323" y="790" width="177" height="30" as="geometry" />
        </mxCell>
        <mxCell id="ixFcj6AIJC7zod2bb0c0-1" value="&lt;font style=&quot;font-size: 18px;&quot;&gt;Requested from OS using mmap()&lt;br&gt;&lt;/font&gt;" style="text;html=1;strokeColor=none;fillColor=none;align=center;verticalAlign=middle;whiteSpace=wrap;rounded=0;" vertex="1" parent="1">
          <mxGeometry x="493.5" y="535" width="289" height="30" as="geometry" />
        </mxCell>
      </root>
    </mxGraphModel>
  </diagram>
</mxfile>
